<svg xmlns="http://www.w3.org/2000/svg" viewBox="0 0 32 32" role="img" aria-label="Kroatiens flagga">
  <rect width="32" height="32" fill="#171796"/>
  <rect width="32" height="21.34" fill="#fff"/>
  <rect width="32" height="10.67" fill="#f00"/>
  <g fill="#f00"><rect x="10" y="9" width="2.4" height="2.4"/><rect x="14.8" y="9" width="2.4" height="2.4"/><rect x="19.6" y="9" width="2.4" height="2.4"/><rect x="12.4" y="11.4" width="2.4" height="2.4"/><rect x="17.2" y="11.4" width="2.4" height="2.4"/><rect x="10" y="13.8" width="2.4" height="2.4"/><rect x="14.8" y="13.8" width="2.4" height="2.4"/><rect x="19.6" y="13.8" width="2.4" height="2.4"/><rect x="12.4" y="16.2" width="2.4" height="2.4"/><rect x="17.2" y="16.2" width="2.4" height="2.4"/><rect x="10" y="18.6" width="2.4" height="2.4"/><rect x="14.8" y="18.6" width="2.4" height="2.4"/><rect x="19.6" y="18.6" width="2.4" height="2.4"/></g>
  <rect x="10" y="9" width="12" height="12" fill="none" stroke="#171796" stroke-width="1"/>
</svg>
